<?xml version="1.0" encoding="UTF-8"?>
<svg id="Layer_1" xmlns="http://www.w3.org/2000/svg" version="1.1" viewBox="0 0 2000 3000">
  <!-- Cleaned for Flutter: styles inlined, metadata removed -->
  <rect fill="#f7ac97" x="0" width="2000" height="3000"/>
  <g>
    <polygon fill="#f5f7ff" points="2000 3000 0 3000 0 1460.833 2000 1626.815 2000 3000"/>
    <polygon fill="#dce1f5" points="1688.574 1604.613 2000 2108.02 2000 1630.584 1688.574 1604.613"/>
    <polygon fill="#dce1f5" points="0 2301.407 389.255 1496.906 0 1464.602 0 2301.407"/>
    <path fill="#d3d9f0" d="M2000,1626.815l-30.498-2.531h0l-16.082-1.335h0l-267.085-22.166-200.631-16.651h0s-16.082-1.335-16.082-1.335h0l-467.717-38.816h0s-16.082-1.335-16.082-1.335h0l-467.716-38.816h0l-16.082-1.335h0l-312.622-25.945-175.92-14.6L0,1460.833v3.768l12.678,1.052L0,1473.213v11.274l28.842-17.492,360.413,29.911,109.689,9.103-105.712,120.573L0,1593.948v5.254l388.938,32.278-152.321,173.734L0,1785.577v7.827l230.22,19.106L0,2075.094v37.026l11.187-13.133,871.15,72.298-84.726,514.675L0,2619.764v25.067l793.54,65.857-47.627,289.312h48.811l40.673-285.839,1164.604,96.652v-25.067l-1161.078-96.359,73.369-515.617,871.152,72.298,216.558,457.702v-76.863l-186.604-378.353,186.604,15.486v-12.885l-193.23-16.036-150.042-304.22,343.272,28.488v-7.827l-347.297-28.823-95.844-194.329,443.141,36.777v-5.254l-445.842-37.001-66.516-134.866,470.102,39.014,42.257,40.336v-14.512l-26.093-24.483,26.093,2.165v-3.768ZM515.108,1507.351l470.102,39.014-21.006,127.603-551.993-45.81,102.896-120.807ZM408.033,1633.065l555.319,46.086-30.268,183.863-673.315-55.879,148.264-174.071ZM884.429,2158.572l-862.992-71.621,232.105-272.506,678.271,56.29-47.384,287.836ZM1777.097,2232.656l-862.994-71.621,41.032-288.363,678.272,56.29,143.69,303.693ZM1629.551,1920.815l-673.316-55.879,26.21-184.2,555.32,46.087,91.786,193.993ZM1535.178,1721.354l-551.994-45.81,18.19-127.837,470.103,39.014,63.7,134.633Z"/>
  </g>
  <g>
    <polygon fill="#dce1f5" points="528.005 0 528.005 964.949 1000.366 1002.151 1485.326 1040.347 1485.326 0 528.005 0"/>
    <path fill="#60c7f0" d="M1001.241,0v162.052l444.084-12.914V0h-444.084ZM568.005,927.975l392.361,30.902v-366.525s-392.36-11.41-392.36-11.41v347.033ZM568.005,174.651l392.361-11.41V0h-392.361v174.651ZM568.005,551.313l392.361,9.746V194.534l-392.361,9.746v347.033ZM1001.241,962.097l444.084,34.976v-390.617s-444.084-12.914-444.084-12.914v368.556ZM1001.241,562.074l444.084,11.031V182.488l-444.084,11.031v368.556Z"/>
    <path fill="#fff" d="M635.098,153.588c-.266-.103-.535-.189-.801-.286-6.331-6.873-14.375-11.292-22.828-11.595-16.162-.579-31.543,13.944-36.45,32.739l80.566-2.343c-4.613-8.798-12.271-15.328-20.487-18.516ZM864.852,245.724c-19.805-1.151-41.028,5.228-61.214,3.871-14.03-.943-28.455-6.204-38.42-18.435-6.756-8.292-11.095-19.292-18.189-27.143-1.689-1.869-5.709-3.185-10.763-3.916l-24.52.609s-8.24,1.482-13.499,11.493c-1.599-4.296-4.146-7.727-6.791-10.989l-123.451,3.066v87.082c9.009,1.681,18.285,1.931,27.202,1.051,27.424-2.707,54.077-13.725,81.572-14.926,22.586-.987,102.315,32.421,108.538-11.229,35.345-4.161,70.69-8.322,106.036-12.483-8.361-5.344-17.277-7.514-26.5-8.05Z"/>
    <path fill="#9cd9f0" d="M960.366,484.598c-2.308-.025-4.552.702-6.389,2.292-3.768-8.402-10.365-14.825-17.605-17.821-1.176-.487-21.596-3.93-17.94,2.177-1.99-3.324-6.023-4.476-8.666-2.474-1.831,1.387-2.794,4.139-2.656,6.882-3.836-11.817-16.791-20.853-26.132-21.205-5.885-.222-11.593,2.062-16.213,6.066-2.462,2.133-11.418,11.832-9.908,16.64-4.985-15.867-23.217-23.32-33.463-13.68-5.554-7.084-15.514-7.531-20.567-.923-4.38,5.727-4.317,15.766-.339,22.602-5.79-7.112-14.093-11.034-21.828-10.086-8.731,1.07-16.404,8.301-19.418,18.3-1.503-.386-3.006-.772-4.509-1.158-20.787,1.813-41.575,3.625-62.363,5.438,24.081,10.426,46.638,10.016,70.654,11.982-10.811,15.876,22.517,14.28,27.317,14.482,23.482.987,46.044.195,68.44-6.976-1.844-3.353-3.688-6.707-5.532-10.06,0-2.431,87.566,2.027,95.082,2.319,1.527.059,3.135.096,4.419-.8,1.284-.896,2.06-3.073,1.228-4.741,2.129-.004,4.259-.009,6.388-.013v-19.245Z"/>
    <g>
      <path fill="#fff" d="M1017.962,0c-4.024,5.366-7.758,11.011-13.137,14.873-1.184.851-2.379,1.639-3.584,2.369v86.412c8.852,2.373,18.16,2.479,27.275,2.263,41.586-.987,83.083-7.607,123.506-19.703,8.175-2.446,17.128-5.85,21.405-14.793,2.942-6.152,1.344-15.174-2.62-19.513,35.414,11.212,74.119,6.078,106.717-14.409-1.114-4.166-2.228-8.332-3.342-12.497,12.255-2.169,130.519-19.338,165.442-25.001h-421.663Z"/>
      <path fill="#fff" d="M960.366,67.404V25.46c-12.723-.637-25.542-2.775-37.738-2.835-30.109-.149-62.834,24.459-90.668,38.18,42.493,7.34,85.566,9.55,128.406,6.599Z"/>
    </g>
    <path fill="#166e91" d="M592.262,532.113c-1.487-16.433-11.685-30.746-24.257-36.008v55.208l48.6,1.207c3.885-15.112-14.265-31.035-24.343-20.407ZM823.328,897.218c-17.262-16.326-28.35-3.376-45.567-1.626-19.255,1.957-27.445-21.486-49.345-20.629,13.698-7.606,11.071-38.04-3.617-41.911.41-19.986-7.248-39.981-20.018-52.273,7.465-30.552-14.979-66.009-40.795-64.448,8.953-19.832,9.297-45.202.886-65.393-8.411-20.191-25.325-34.602-43.599-37.145,5.262-8.887,7.312-20.193,6.387-31.116l-59.655-1.735v347.033s268.916,21.18,268.916,21.18c3.962-18.531-1.148-40.166-13.594-51.937Z"/>
    <g>
      <path fill="#166e91" d="M1445.326,606.455l-188.236-5.474c1.132,6.869,2.554,13.676,4.287,20.39-18.716-5.133-37.86-10.297-56.903-7.55-19.043,2.747-38.302,14.936-46.637,36.254-8.335,21.317-1.557,51.58,16.479,59.608-28.17,14.838-43.471,59.09-32.667,94.472-20.671-13.935-47.966-11.147-66.5,6.794-17.576,17.013-26.306,46.723-22.022,73.721-5.839-24.578-31.964-35.104-51.885-26.494v103.921l444.084,34.976v-390.617Z"/>
      <path fill="#166e91" d="M1400.022,2.862c-1.798,11.323,5.552,23.543,14.851,24.691-11.67,10.037-11.014,35.299,1.152,44.393-48.189-17.827-52.744,79.578-48.82,79.463.01,0,78.121-2.272,78.121-2.272V0h-44.641c-.281.926-.507,1.88-.663,2.862Z"/>
      <path fill="#166e91" d="M1364.891,262.03c-11.797-11.473-29.736-12.349-40.406,2.208-10.44,14.243-8.775,39.298,3.405,51.25-9.847-9.755-26.474-5.902-32.785,7.598-6.311,13.5-.697,33.204,11.071,38.851-25.698,12.632-88.101,32.935-72.34,80.398,4.799,14.452,14.442,25.471,23.847,35.918-26.257,14.526-24.717,65.379-4.021,90.09,0,0,191.665,4.761,191.665,4.761-1.028-.026-.007-354.032,0-390.619-28.88.743-132.46,10.316-80.436,79.544Z"/>
    </g>
    <path fill="#d3d9f0" d="M645.277,137.514c-.119.208-.086.433-.046.314.005-.12.015-.243.045-.307,0-.002,0-.005,0-.007Z"/>
  </g>
  <g>
    <path fill="#23242e" d="M734.448,2833.72c85.487,17.897,1028.938,91.494,1159.614-32.646,73.183-69.522,76.316-555.758,14.473-621.605-135.966-144.767-1138.564-141.99-1218.853-29.643-126.111,176.464-55.977,662.803,44.766,683.894Z"/>
    <g>
      <g>
        <g>
          <path fill="#d39b5a" d="M852.356,2298.332c-143.886-770.344-229.176-1434.229-229.176-1434.229,64.355-174.557-64.339-542.446-115.025-521.235-50.687,21.211-8.176,212.106-8.176,212.106-49.989-14.977-52.126,47.966-52.126,47.966,0,0-17.909-17.505-35.291-10.848-34.085,13.054-33.995,67.427-33.995,67.427,0,0-34.482-11.749-23.876,96.955,10.605,108.704,72.224,67.133,72.224,67.133,7.366,80.276,35.569,86.39,43.473,86.499,32.067,255.256-48.689,877.981,220.943,1401.979l161.026-13.753Z"/>
          <path fill="#b0662b" d="M494.486,793.732c-.727-.667-1.68-1.162-2.696-1.117-.973.044-2.031.36-2.696,1.117-2.526,2.875-5.331,5.499-8.339,7.863-3.325,2.526-6.867,4.754-10.614,6.6-.964.475-1.946.915-2.933,1.341-3.539,1.459-7.209,2.623-10.96,3.389-.956.195-1.919.349-2.885.489-3.274.4-6.591.465-9.869.072-2.242-.342-4.444-.91-6.551-1.754-1.592-.713-3.104-1.587-4.508-2.623-1.438-1.162-2.734-2.484-3.893-3.924-1.88-2.511-3.361-5.291-4.599-8.169-1.904-4.642-3.254-9.493-4.68-14.296-1.796-6.049-3.593-12.097-5.389-18.146l-5.371-18.086c-1.791-6.03-3.582-12.058-5.441-18.067-.936-3.025-1.871-6.05-2.807-9.074-.924-2.987-1.899-5.955-2.883-8.924-.27-.813-.503-1.684-.854-2.475-.528-1.37-1.057-2.74-1.585-4.11-.606-1.572-1.357-3.083-2.079-4.607-.672-1.716-1.344-3.432-2.017-5.149-.149-.38-.332-.693-.697-.906-.325-.19-.804-.271-1.168-.153-.824.267-1.229,1.031-1.059,1.864.319,1.554.637,3.107.956,4.661.275,1.339.447,2.695.627,4.05.013.672.221,1.368.36,2.027.099.469.198.939.296,1.408.202.959.404,1.919.606,2.878l-.109-.812c.101,1.06.427,2.085.696,3.112.216.826.432,1.652.648,2.478.427,1.632.858,3.262,1.317,4.885.907,3.205,1.815,6.411,2.722,9.616,1.827,6.452,3.717,12.883,5.617,19.314l5.663,19.172c1.899,6.431,3.799,12.861,5.698,19.292,1.588,5.375,3.213,10.751,5.635,15.823,1.097,2.297,2.385,4.502,3.937,6.523.941,1.225,1.91,2.414,3.015,3.496,1.116,1.093,2.344,2.077,3.616,2.98,2.364,1.677,5.065,2.912,7.822,3.786,2.772.879,5.693,1.333,8.59,1.527,2.657.178,5.331.075,7.973-.246,2.992-.364,5.938-.915,8.844-1.72,5.485-1.52,10.816-3.778,15.737-6.637,4.952-2.877,9.561-6.426,13.603-10.485.931-.936,1.831-1.902,2.702-2.894.672-.765,1.117-1.653,1.117-2.696,0-.935-.415-2.052-1.117-2.696Z"/>
          <path fill="#b0662b" d="M543.661,762.973c-.516-.801-1.285-1.506-2.241-1.723-.332-.045-.665-.089-.997-.134-.583.002-1.13.136-1.645.388-.156.065-.312.131-.468.193-.62.247-1.247.484-1.849.774-.673.324-1.346.647-2.023.963-1.224.572-2.459,1.119-3.702,1.649-3.561,1.475-7.216,2.754-10.985,3.58-.916.201-1.838.365-2.765.505-2.457.299-4.938.351-7.398.072-1.862-.293-3.685-.781-5.438-1.476-1.665-.746-3.24-1.671-4.706-2.756-1.68-1.353-3.188-2.903-4.535-4.588-1.723-2.297-3.174-4.789-4.409-7.379-.321-.672-.62-1.355-.914-2.039-1.128-2.74-2.083-5.55-2.914-8.393-.874-2.994-1.623-6.023-2.319-9.063-.974-4.253-1.938-8.509-2.907-12.763-.98-4.305-1.961-8.609-2.941-12.914-.98-4.305-1.961-8.609-2.941-12.914-.98-4.305-1.96-8.609-2.941-12.914-.98-4.305-1.96-8.609-2.941-12.914-.98-4.304-1.936-8.615-2.946-12.913-1.009-4.297-2.019-8.593-3.028-12.89-1.009-4.293-2.129-8.564-3.31-12.812-.145-.521-.29-1.042-.435-1.563-.156-.562-.289-1.142-.509-1.684-.209-.586-.418-1.172-.627-1.758-.112-.314-.224-.629-.336-.943-.18-.504-.323-1.027-.617-1.468-.198-.371-.397-.742-.593-1.115-.142-.584-.323-1.163-.482-1.741-.25-.906-1.287-1.554-2.21-1.255-.997.323-1.431,1.216-1.255,2.21.093.523.185,1.046.278,1.568-.013.413-.035.826-.055,1.239-.078.349-.053.701.015,1.054.184,1.683.304,3.37.595,5.038.284,1.626.568,3.253.852,4.88-.038-.283-.076-.565-.114-.848.114,1.111.374,2.211.588,3.306l.504,2.58c.336,1.72.677,3.437,1.048,5.149l2.196,10.141c1.472,6.8,3.012,13.584,4.531,20.374,1.518,6.789,3.037,13.578,4.555,20.367,1.518,6.789,3.037,13.578,4.555,20.367,1.482,6.626,2.938,13.259,4.448,19.879,1.099,4.814,2.34,9.61,4.023,14.257,1.732,4.783,3.861,9.518,6.892,13.631,1.536,2.084,3.202,4.063,5.166,5.758,1.988,1.716,4.16,3.238,6.542,4.356,1.521.714,3.093,1.346,4.711,1.803,1.739.491,3.527.769,5.321.961,3.294.352,6.598.066,9.856-.47,6.456-1.063,12.6-3.614,18.492-6.378.676-.317,1.35-.639,2.022-.966.68-.331,1.286-.802,1.961-1.138.809-.402,1.49-1.393,1.723-2.241.247-.898.136-2.093-.378-2.89Z"/>
          <path fill="#b0662b" d="M560.207,1960.356c8.302,32.559,17.5,65.128,27.682,97.608l209.679-63.193c-43.893-251.58-80.433-481.712-108.535-667.734l-11.171,518.759s-58.686,50.744-117.655,114.561Z"/>
          <path fill="#d39b5a" d="M448.563,683.64c12.289,25.845,110.182-2.727,110.182-2.727-88.378,61.785-26.273,289.985,61.859,136.592,39.334-68.46,44.458-208.788,4.211-219.764-40.247-10.976-191.229,54.401-176.252,85.899Z"/>
          <path fill="#b0662b" d="M572.64,865.152c-.291-.9-.849-1.768-1.709-2.222-.296-.125-.592-.25-.888-.375-.56-.15-1.119-.165-1.679-.06-.52.025-1.046.095-1.563.115-.65.025-1.301.027-1.951.023-1.105-.007-2.208-.098-3.305-.226-2.47-.374-4.881-1.057-7.198-1.991-2.615-1.151-5.084-2.61-7.37-4.324-3.011-2.39-5.679-5.182-8.051-8.203-3.761-4.969-6.794-10.464-9.457-16.086-.747-1.576-1.453-3.171-2.136-4.776-1.687-4.059-3.178-8.198-4.454-12.404-1.328-4.38-2.431-8.829-3.303-13.322-.465-2.395-.858-4.804-1.193-7.221-.565-4.337-.935-8.703-1.064-13.074-.135-4.556-.037-9.12.3-13.666.179-2.411.431-4.816.742-7.214.607-4.376,1.431-8.721,2.481-13.012,1.073-4.384,2.373-8.712,3.889-12.962.798-2.236,1.661-4.448,2.576-6.639,1.699-3.979,3.583-7.878,5.657-11.675,2.156-3.946,4.509-7.785,7.051-11.495,1.342-1.959,2.741-3.878,4.186-5.763,2.734-3.508,5.637-6.883,8.713-10.095.899-.939,1.812-1.863,2.738-2.776l.596-.771c.279-.438.429-.91.452-1.417.091-.338.091-.676,0-1.013-.023-.507-.174-.98-.452-1.417-.355-.551-.816-1.012-1.367-1.367-.833-.537-2.001-.612-2.937-.384-6.69,1.63-13.413,3.123-20.165,4.476-6.711,1.345-13.45,2.551-20.211,3.62-3.635.574-7.276,1.105-10.923,1.599-4.177.556-8.36,1.051-12.548,1.518-3.842.428-7.694.859-11.563.906-1.892.023-3.786-.058-5.665-.278-2.041-.305-4.049-.806-5.967-1.572-1.184-.537-2.32-1.178-3.376-1.935-.987-.798-1.886-1.698-2.675-2.692-.792-1.088-1.463-2.255-2.018-3.48-.586-1.481-1.003-3.021-1.252-4.594-.181-1.62-.186-3.254-.002-4.873.085-.509.177-1.017.221-1.532-.04.297-.08.594-.12.891.235-1.263.602-2.494,1.077-3.687.131-.288.259-.579.405-.86.108-.207.22-.412.336-.614.058-.101.117-.202.179-.301.028-.044.057-.087.084-.131.18-.302.325-.719.391-1.127.021-.056.044-.112.065-.168.25-.559.521-1.107.829-1.636.515-.884.403-2.184-.374-2.897-.76-.698-1.984-.964-2.897-.374-.857.554-1.665,1.191-2.432,1.868-.325.201-.613.451-.864.775-.138.178-.259.337-.376.521-.112.175-.224.35-.332.527-.201.332-.392.671-.571,1.016-.47.905-.871,1.851-1.23,2.804-.645,1.716-.975,3.472-1.204,5.286-.195,1.548-.219,3.117-.076,4.671.167,1.821.468,3.64,1.014,5.387,1.085,3.471,2.916,6.739,5.51,9.309,3.011,2.983,6.967,4.956,11.051,5.989,4.218,1.066,8.645,1.253,12.975,1.061,4.462-.199,8.916-.718,13.351-1.23,5.091-.588,10.173-1.253,15.245-1.987,4.779-.691,9.548-1.452,14.304-2.281s9.502-1.728,14.232-2.695c1.836-.375,3.668-.77,5.5-1.166-2.032,2.425-4,4.905-5.87,7.456-2.072,2.826-4.032,5.735-5.876,8.716-1.844,2.981-3.57,6.035-5.175,9.151-1.74,3.379-3.312,6.834-4.785,10.337-1.358,3.231-2.589,6.515-3.689,9.843-1.099,3.327-2.067,6.699-2.897,10.103-.828,3.395-1.52,6.823-2.071,10.273-.641,4.016-1.125,8.061-1.417,12.117-.271,3.758-.379,7.528-.327,11.296.052,3.768.254,7.534.616,11.285.391,4.049.947,8.087,1.673,12.09.673,3.708,1.502,7.388,2.485,11.027.983,3.637,2.119,7.233,3.408,10.774,1.389,3.816,2.948,7.574,4.659,11.257,1.546,3.33,3.222,6.605,5.086,9.769,1.98,3.36,4.203,6.566,6.677,9.582,1.131,1.378,2.328,2.703,3.596,3.957,1.495,1.478,3.096,2.817,4.76,4.099,3.081,2.373,6.482,4.2,10.104,5.604,1.642.637,3.333,1.147,5.057,1.506,2.032.424,4.116.695,6.193.713,2.019.017,3.983-.338,5.963-.68.867-.15,1.795-.979,2.222-1.709.467-.797.664-1.972.375-2.866Z"/>
        </g>
        <path fill="#d3d9f0" d="M455.221,2097.947s76.821-146.395,333.741-299.812l111.543,677.703s-238.406-64.344-445.283-377.891Z"/>
        <path fill="#a8b2e0" d="M852.63,2184.972c-25.903,2.464-52.721,3.494-80.352,2.734-151.585-4.172-241.772-68.528-292.635-126.733-17.261,23.326-24.424,36.974-24.424,36.974,206.878,313.546,445.283,377.891,445.283,377.891l-47.874-290.866Z"/>
      </g>
      <path fill="#d3d9f0" d="M421.642,3000h1390.012c-2.964-40.915-74.926-944.925-660.41-1146.016-391.488-134.462-729.091,511.557-729.602,1146.016Z"/>
      <path fill="#a8b2e0" d="M1041.756,2465.974s123.077,35.955,189.455-33.189c0,0-50.475,116.854-189.455,33.189Z"/>
      <path fill="#a8b2e0" d="M855.105,2376.812s208.127,177.782,394.405,134.686c0,0-234.536,91.479-394.405-134.686Z"/>
      <path fill="#a8b2e0" d="M1811.654,3000c-2.501-34.517-54.015-681.961-420.58-1005.093l-141.564,64.896s85.431,550.638,89.595,764.379c1.049,53.879-1.28,114.812-5.347,175.818h477.897Z"/>
      <g>
        <path fill="#b0662b" d="M1289.492,2155.342c-17.168,139.02-122.447,251.718-235.146,251.718s-190.142-112.698-172.973-251.718c17.168-139.02,122.447-251.718,235.146-251.718s190.142,112.698,172.973,251.718Z"/>
        <path fill="#7d2f1f" d="M1289.493,2155.342c17.168-139.02-60.274-251.718-172.973-251.718s-217.977,112.698-235.146,251.718c-1.731,14.012-2.455,27.738-2.323,41.127,46.592,71.422,109.733,122.224,186.249,142.723,43.444,11.639,88.039,12.64,132.395,4.302,47.74-46.108,82.554-113.295,91.799-188.152Z"/>
        <g>
          <ellipse cx="1156.361" cy="1679.087" rx="641.306" ry="425.051" transform="translate(-764.774 2361.542) rotate(-75.002)"/>
          <path fill="#b0662b" d="M1322.319,1059.627c-115.754-31.011-239.68,13.257-345.465,109.532,0,0,472.945,171.212,386.12,628.976-88.167,464.842-497.307,430.96-497.307,430.96,36.089,33.015,77.91,56.908,124.737,69.453,226.753,60.749,484.874-167.347,576.53-509.465,91.656-342.119-17.862-668.707-244.615-729.456Z"/>
          <path fill="#7d2f1f" d="M1330.214,1019.418c-193.201-51.76-402.19,68.027-530.13,281.687,69.14-12.999,140.034-17.924,210.926-13.505,372.81,23.235,546.83,294.998,554.91,618.741,21.474-45.453,39.488-94.158,53.266-145.584,91.656-342.118-37.721-674.027-288.972-741.339Z"/>
          <path fill="#5c2217" d="M1373.667,1034.17s125.117,85.977,59.469,180.628c-92.991,134.076-500.358,41.584-564.505-10.255-24.716,29.48-47.712,61.766-68.547,96.561,69.14-12.999,140.034-17.924,210.926-13.505,372.81,23.235,546.83,294.998,554.911,618.741,21.474-45.453,39.488-94.158,53.266-145.584,86.212-321.798-23.138-634.553-245.519-726.587Z"/>
          <path fill="#b0662b" d="M1661.111,1857.346c10.133,53.149-43.439,119.774-119.657,148.81-76.218,29.036-146.219,9.489-156.352-43.661-10.133-53.149,43.439-119.774,119.657-148.81,76.218-29.036,146.219-9.489,156.352,43.661Z"/>
          <path fill="#7d2f1f" d="M1616.175,1848.538s-71.304-23.768-101.014,35.652c-29.71,59.42,51.78,94.223,61.967,53.478,10.186-40.745-40.745-42.443-40.745-42.443,0,0-.849-34.803,79.793-46.687Z"/>
          <path fill="none" d="M1599.589,1868.059c.659.368.368.176,0,0h0Z"/>
          <path fill="#5c2217" d="M1524.678,1465.682c-85.738,6.319-114.156,289.701-72.86,411.197,237.361-64.879,192.26-419.997,72.86-411.197Z"/>
          <path fill="#fff" d="M1208.613,1798.291c-17.897,62.247-81.589,108.055-146.295,105.216-64.706-2.838-124.143-54.047-136.52-117.622,86.055,43.895,192.15,45.754,282.816,12.405Z"/>
          <path fill="#7d2f1f" d="M1097.004,1504.291c-34.082,43.211-64.04,89.673-89.337,138.549-28.527-9.866-64.184-8.813-91.604,3.808-14.115,6.497-28.12,17.766-29.519,33.242-1.796,19.872,17.973,35.206,37.148,40.725,52.146,15.011,109.73-14.068,140.818-58.544,31.088-44.476,32.633-103.518,32.494-157.781Z"/>
          <path fill="#23242e" d="M953.766,1540.839c14.198,4.379,22.329,21.293,21.887,41.759,3.891-5.982,7.176-12.89,9.527-20.51,9.093-29.481.941-58.167-18.206-64.073-19.147-5.905-42.04,13.206-51.133,42.687-2.35,7.621-3.527,15.179-3.681,22.313,11.163-17.16,27.408-26.556,41.606-22.177Z"/>
          <path fill="#23242e" d="M1204.589,1637.339c14.198,4.379,22.329,21.293,21.887,41.759,3.891-5.982,7.176-12.89,9.527-20.51,9.093-29.481.941-58.167-18.206-64.073-19.147-5.905-42.04,13.206-51.133,42.687-2.35,7.621-3.527,15.179-3.681,22.313,11.163-17.16,27.408-26.556,41.606-22.177Z"/>
          <path fill="#7d2f1f" d="M900.504,1454.151l158.935-8.586s-17.188-40.913-81.562-40.913-77.372,49.5-77.372,49.5Z"/>
          <path fill="#7d2f1f" d="M1170.096,1504.291l127.51,78.307s-5.837-41.899-42.03-71.467c-36.192-29.569-85.481-6.84-85.481-6.84Z"/>
        </g>
      </g>
      <g>
        <polygon fill="#b0662b" points="1775.448 2743.293 1533.913 2804.122 1567.262 3000 1811.553 3000 1775.448 2743.293"/>
        <path fill="#d3d9f0" d="M1457.294,2945.037l368.636-89.491s-112.714-577.258-278.765-571.889c-267.313,8.644-89.871,661.38-89.871,661.38Z"/>
      </g>
    </g>
  </g>
  <g>
    <path fill="#7d2f1f" d="M668.433,2315.01c-6.509,0-12.05-4.952-12.64-11.558-.084-.951-7.373-95.659,89.923-137.572,6.449-2.775,13.926.199,16.702,6.643,2.775,6.447-.199,13.926-6.643,16.702-80.048,34.483-74.914,108.866-74.656,112.013.571,6.978-4.607,13.127-11.583,13.725-.372.03-.74.047-1.102.047Z"/>
    <g>
      <path fill="#fff" d="M713.627,2269.129s69.264-10.592,100.636,24.527c0,0-18.487,63.164,15.702,84.043,0,0,4.624,61.336,48.609,58.914,0,0,3.332,31.664-12.13,66.871h-181.78v-214.78l28.963-19.575Z"/>
      <path fill="#c33" d="M810.017,2471.167c-1.731.112-3.451.263-5.211.263-44.208,0-80.046-35.838-80.046-80.046,0-12.522,2.957-24.325,8.083-34.879-15.303-14.58-24.887-35.106-24.887-57.912,0-10.416,2.051-20.337,5.67-29.464-19.322-4.682-39.262-2.782-58.518,4.625-18.825-19.414-41.402-30.747-65.691-30.747-65.696,0-118.953,82.737-118.953,184.798s53.257,184.798,118.953,184.798c.365,0,.723-.038,1.087-.043,8.942,6.384,18.832,11.164,29.578,14.042,25.099,6.724,51.338,2.142,75.807-11.198,7.427,5.84,15.699,10.114,24.753,12.54,53.338,14.29,115.221-40.17,145.802-124.461-23.149-2.325-43.354-14.526-56.427-32.317Z"/>
      <path fill="#a62929" d="M866.443,2503.484c-23.149-2.325-43.354-14.526-56.427-32.317-1.731.112-3.452.263-5.211.263-5.728,0-11.312-.613-16.699-1.757-8.239,34.105-24.058,62.577-50.817,80.265-68.167,45.06-165.802,20.827-243.757-12.766,21.653,45.74,56.535,75.432,95.885,75.432.365,0,.723-.038,1.087-.043,8.942,6.384,18.833,11.164,29.577,14.042,25.099,6.724,51.338,2.142,75.807-11.198,7.427,5.84,15.699,10.114,24.753,12.54,53.338,14.29,115.221-40.17,145.802-124.461Z"/>
    </g>
  </g>
  <g>
    <g>
      <polygon fill="#166e91" points="322.213 2611.778 153.709 2677.534 237.961 2689.596 565.648 2661.697 322.213 2611.778"/>
      <path fill="#d3d9f0" d="M206.501,2685.092s40.384,79.407,18.114,127.694h210.441v-170.871l-228.554,43.176Z"/>
      <path fill="#a8b2e0" d="M435.056,2650.318v-8.403l-228.554,43.176s2.433,4.788,5.773,12.715l121.222-8.211s26.182,37.755,4.206,123.19h84.193l13.16-162.468Z"/>
      <polygon fill="#4f30bd" points="328.804 2843.505 153.709 2822.262 228.81 2800.481 548.604 2785.115 328.804 2843.505"/>
      <path fill="#4f30bd" d="M322.213,2611.778s79.193,110.512,6.591,231.727c0,0,425.305-9.757,638.337-9.757,95.852,0,104.098-237.125,1.78-237.125-317.81,0-646.708,15.154-646.708,15.154Z"/>
      <path fill="#166e91" d="M328.804,2843.506s425.305-9.757,638.337-9.757c72.906,0,95.125-137.178,56.564-202.859l-675.682,35.02c14.316,43.653,21.926,108.901-19.219,177.596Z"/>
    </g>
    <g>
      <polygon fill="#b03916" points="211.786 2826.278 43.282 2852.241 127.534 2861.767 455.221 2865.699 211.786 2826.278"/>
      <path fill="#d3d9f0" d="M96.074,2858.21s40.384,88.671,18.114,126.804h210.441v-134.937l-228.554,8.133Z"/>
      <path fill="#a8b2e0" d="M250.485,2985.014c23.711-26.901,62.505-71.31,74.143-86.971v-16.395c-2.806-7.861-7.066-19.098-11.726-31.154l-216.829,7.716s1.917,4.21,4.685,11.186l105.743,6.802s34.024,35.964,22.581,108.817h21.403Z"/>
      <polygon fill="#cc5733" points="43.282 2992.497 121.592 3000 262.579 3000 438.177 2963.162 118.939 2972.805 43.282 2992.497"/>
      <path fill="#cc5733" d="M1144.026,2814.31c-317.81,0-932.24,11.967-932.24,11.967,0,0,74.138,81.71,13.17,173.722h931.982c81.726-18.024,83.907-185.69-12.911-185.69Z"/>
      <path fill="#b03916" d="M242.46,2882.381c9.892,31.538,11.803,73.386-17.506,117.619h931.909c62.635-13.745,78.604-115.326,39.151-162.161l-953.555,44.542Z"/>
    </g>
  </g>
</svg>