<?xml version="1.0" encoding="UTF-8" standalone="no"?>
<!-- Created with Inkscape (http://www.inkscape.org/) -->

<svg
   width="4000"
   height="2667"
   viewBox="0 0 1058.3333 705.64375"
   version="1.1"
   id="svg1"
   xml:space="preserve"
   inkscape:version="1.4.2 (ebf0e940d0, 2025-05-08)"
   sodipodi:docname="rainforest.svg"
   xmlns:inkscape="http://www.inkscape.org/namespaces/inkscape"
   xmlns:sodipodi="http://sodipodi.sourceforge.net/DTD/sodipodi-0.dtd"
   xmlns="http://www.w3.org/2000/svg"
   xmlns:svg="http://www.w3.org/2000/svg"><sodipodi:namedview
     id="namedview1"
     pagecolor="#ffffff"
     bordercolor="#000000"
     borderopacity="0.25"
     inkscape:showpageshadow="2"
     inkscape:pageopacity="0.0"
     inkscape:pagecheckerboard="0"
     inkscape:deskcolor="#d1d1d1"
     inkscape:document-units="mm"
     inkscape:zoom="0.25"
     inkscape:cx="1788"
     inkscape:cy="1328"
     inkscape:window-width="1920"
     inkscape:window-height="1168"
     inkscape:window-x="0"
     inkscape:window-y="0"
     inkscape:window-maximized="1"
     inkscape:current-layer="layer3" /><defs
     id="defs1" /><g
     inkscape:groupmode="layer"
     id="layer2"
     inkscape:label="layer 1"
     style="display:inline"
     sodipodi:insensitive="true"><rect
       style="font-variation-settings:'wght' 700;display:inline;fill:#87cdde;fill-opacity:1;stroke:none;stroke-width:4.18815;stroke-linecap:round;stroke-linejoin:round;stroke-dasharray:none;paint-order:markers fill stroke"
       id="rect75"
       width="1058.3325"
       height="705.64258"
       x="0.00040690103"
       y="0.00058593752" /><path
       id="rect1"
       style="font-variation-settings:'wght' 700;display:inline;fill:#2ca02c;fill-opacity:1;stroke:none;stroke-width:4.18815;stroke-linecap:round;stroke-linejoin:round;stroke-dasharray:none;paint-order:markers fill stroke"
       d="M 5.1676432e-4,5.1676432e-4 V 705.64323 H 1058.3328 V 5.1676432e-4 H 951.48507 L 957.79632,86.88927 c -21.74558,21.43535 -47.93852,38.17654 -47.97382,82.5283 -28.7082,-0.21318 -44.53178,55.29664 -31.19964,69.77972 -42.78146,-9.54528 -71.64578,-1.63536 -77.16015,35.56113 -13.99772,2.06136 -26.84465,6.64043 -30.86427,30.52889 -17.42387,4.1399 -20.18438,14.90205 -18.11621,27.84481 -32.72944,-0.97649 -39.11879,13.74921 -39.25083,32.20579 -16.61344,-0.38343 -33.57902,-2.44009 -45.28974,20.46438 -23.37476,-9.57265 -46.98714,-15.58457 -73.47045,21.47104 -10.0478,5.30741 -25.99684,-2.03132 -28.18019,20.12849 -12.74958,-4.13891 -17.78875,-0.56688 -21.80643,4.02611 l -16.10289,-6.70967 c -4.47014,-7.32906 -9.75122,-13.44201 -20.46438,-11.40654 3.6406,-15.47684 -8.7839,-22.69141 -27.17405,-26.83815 3.79262,-26.08368 -8.54766,-26.72705 -20.79977,-27.50943 -16.99942,-23.71188 -46.9582,-3.22861 -48.97995,8.72246 -5.74489,-9.97908 -12.78271,-18.18108 -28.51609,-14.42599 3.29093,-53.04912 -25.19581,-65.87947 -62.06392,-68.10231 1.0703,-8.4835 -6.05585,-16.63904 -20.79976,-24.48997 11.7032,-12.81149 2.74596,-23.55683 -17.10955,-33.21245 3.31431,-7.41905 -25.31755,-24.76897 -40.92825,-14.09061 -1.97588,-11.16556 -12.64195,-16.80052 -21.13514,-23.8187 l -8.05171,-50.65789 C 219.48709,98.876809 209.13724,46.849198 206.32074,5.1676432e-4 Z" /><path
       style="opacity:1;fill:#469204;fill-opacity:1;stroke:none;stroke-width:0.2;stroke-linecap:round;stroke-linejoin:round;paint-order:markers fill stroke"
       d="m 429.369,480.13418 c 15.33782,-9.17496 34.6724,-14.35317 66.89617,-6.64218 8.01342,-5.93362 -1.97642,-14.94096 39.3786,-15.18211 9.75317,2.92822 21.57551,4.7069 23.72203,11.86104 5.91844,-21.26051 29.03644,-19.58828 47.44411,-24.19649 -1.60425,-30.07191 12.4811,-24.67169 31.31309,-8.53993 35.9783,-15.06336 44.56393,-0.77743 56.45846,9.96325 14.72178,-17.85945 23.59493,-43.61456 55.03513,-38.90414 -0.50648,-18.74167 4.53826,-33.23829 34.15975,-28.94092 4.58696,-12.04241 -4.38733,-11.49222 -11.86101,-12.33546 8.21882,-6.7141 18.48003,-9.75192 35.58307,-0.47442 2.7928,-26.48046 18.24138,-24.13388 37.00637,-14.23324 l -1.89775,229.15494 -420.35462,2.84665 z"
       id="path2"
       sodipodi:nodetypes="ccccccccccccccc" /><path
       id="rect2"
       style="font-variation-settings:'wght' 700;display:inline;fill:#338000;fill-opacity:1;stroke:none;stroke-width:4.18815;stroke-linecap:round;stroke-linejoin:round;stroke-dasharray:none;paint-order:markers fill stroke"
       d="M 5.1676432e-4,5.1676432e-4 V 705.64323 H 1058.3328 V 5.1676432e-4 h -54.0556 L 1003.422,271.73897 c -13.71699,-10.48223 -23.00268,5.52878 -34.55452,8.72246 -15.94096,-50.44784 -0.95318,-78.45715 4.02559,-113.72794 -20.77691,6.01417 -28.95234,23.18984 -34.2191,42.94157 -38.46869,-59.85622 -35.7915,-87.19883 -40.59287,-120.101716 -0.67658,-4.636447 -10.8979,-7.30893 -10.73526,4.360974 0.61477,44.111002 15.70825,93.233592 50.14939,148.030762 4.68027,8.71314 4.87349,17.22215 2.60914,25.61962 -15.47863,-12.17409 -31.75768,-18.60937 -51.00205,-3.79563 2.87986,4.89906 7.75339,8.23158 13.75885,10.6748 -21.97047,2.95193 -44.62172,2.16058 -60.4914,38.66689 17.54225,-5.13568 34.9445,-7.46832 51.23977,12.33568 -51.77114,-5.94517 -85.2813,51.30167 -60.96579,83.73907 -24.35576,3.01756 -42.2333,13.94549 -36.76933,53.37452 -4.35354,-12.62548 -14.14129,-15.98082 -23.72207,-19.68923 2.2575,9.35437 2.64497,17.68838 1.42369,25.14523 -12.01917,3.76693 -24.03858,4.8879 -36.05775,19.45204 -9.93003,-90.10855 -11.63694,-161.71596 -17.07958,-241.72788 12.37991,-4.50187 23.11093,-13.57701 32.0244,-27.69546 13.43819,-4.70474 26.30063,-11.72575 32.9737,-26.39064 17.31077,1.4068 32.81706,5.62076 52.66294,3.08405 1.07558,-5.34406 -5.31135,-8.37216 -8.30285,-12.45402 13.22621,-1.46871 41.74263,-2.7674 40.5076,-11.38329 -4.6122,-32.17588 -36.16188,-50.13144 -88.18893,-58.4786 15.26396,-16.593767 -32.85624,-38.707963 -74.72412,-39.378473 -37.07881,-0.593813 -89.31856,13.155716 -86.11103,40.564963 -33.33137,10.31285 -69.25543,16.43328 -91.80421,46.96975 -2.55938,3.46601 -8.76583,11.79053 2.37195,14.23324 12.43254,2.72667 25.66878,4.33442 40.09057,4.03231 -8.35183,6.41912 -23.31024,15.2424 -16.6057,17.79168 11.26894,4.28481 34.42512,-1.76656 58.83052,-5.21881 9.85127,18.10065 21.5863,34.92415 49.81659,40.56445 7.76452,18.31079 18.96528,31.73881 32.73651,41.51375 -4.16097,77.90744 -3.63823,160.85922 -15.18254,230.81537 l -16.84238,15.18253 c 3.66291,-14.16607 6.76255,-29.2266 4.50722,-46.96974 -9.54011,4.54897 -15.69333,12.82245 -16.13132,34.63406 -11.7482,-25.6229 -22.72595,-33.72924 -33.21037,-30.60123 6.3943,11.9914 16.36784,26.6674 17.07957,34.39687 -17.14214,-9.04344 -32.16534,-12.6129 -41.75094,-2.13528 13.88146,4.31636 25.81347,11.1827 35.58336,20.87573 -18.07143,-2.40032 -32.67802,0.0503 -41.27655,10.912 -0.8683,-12.61486 -4.16086,-24.33662 -28.70367,-28.22929 -8.64704,-57.32828 -8.9207,-114.65657 -12.09797,-171.98485 6.02981,-4.22582 11.67279,-8.99286 16.13079,-15.41921 12.05122,0.63287 24.16723,-1.12472 36.53214,-12.09849 10.43296,0.43186 21.89166,3.58617 30.83843,-2.84634 2.40601,-1.72986 -3.78799,-5.46653 -13.87719,-9.84487 4.13828,-1.08899 31.58921,-3.13031 30.72009,-9.84436 -3.61859,-27.95388 -24.99757,-42.92417 -57.40735,-49.34221 -1.49385,-48.02304 -118.67505,-23.65274 -104.85148,-0.71158 -10.77377,-1.64071 -40.13754,2.96351 -62.15176,32.4993 -9.48566,12.72661 9.22493,17.00724 28.70367,20.87522 -3.30923,3.08387 -9.57557,7.52456 -5.69319,9.25163 8.57749,3.81568 21.96903,2.31567 39.61567,-0.47439 9.88842,21.22025 23.79763,36.18596 42.22533,44.12289 -3.00479,54.16533 -9.4471,105.92447 -9.01444,162.49602 -9.06825,2.28966 -20.23374,-1.71162 -22.77329,20.16414 -15.95822,-14.7463 -2.67574,-31.98592 -54.79768,-43.64849 4.90704,-6.95623 26.63695,-5.50107 41.75042,-7.35408 -12.10888,-20.99616 -29.70576,-31.30493 -59.7793,-17.31729 11.07611,-12.69087 21.17921,-27.65156 29.41526,-46.96922 -17.14938,3.00602 -31.20344,8.73199 -37.95531,20.87521 -0.59822,-13.72191 -0.13438,-31.88013 -9.13277,-31.78773 -9.84948,0.10112 -9.54519,16.80707 -4.38888,37.71812 -11.03762,-21.4853 -17.62108,-24.90624 -23.01048,-23.48488 8.82018,17.07936 17.91553,34.3133 21.82451,48.63011 -10.14506,-12.22235 -20.96764,-21.95984 -34.87126,-20.40082 2.92733,-3.77455 5.5484,-7.77867 10.91199,-9.72602 -5.80208,-4.80814 -12.33615,-3.39484 -18.74045,-3.08405 -7.88671,-22.63912 -19.38982,-31.77623 -31.98875,-36.82308 -0.21535,-25.81129 -17.49651,-36.69013 -42.94156,-40.42544 6.00948,-6.82841 14.13362,-7.57592 22.64461,-7.21248 -3.34164,-12.93473 -12.49526,-23.97206 -23.14794,-28.34814 -27.94228,-11.47859 -33.35234,4.85427 -44.45104,9.89656 -3.49263,-13.55218 -12.11253,-22.81183 -29.18684,-24.99331 1.11302,-4.56463 12.26815,-5.39181 20.79976,-6.70967 3.07432,-0.47488 3.36938,-18.87434 -23.48384,-21.63847 -7.69912,-0.79251 7.42193,-24.1135 -19.79311,-12.91601 l -30.1935,17.78031 c -0.16528,-17.35051 -7.4342,-32.58882 -19.28978,-46.46383 9.62378,-2.78926 20.32242,-13.29239 11.23859,-40.76082 -1.49251,-4.51316 7.72146,0.9792 11.07064,4.69687 7.57177,8.40485 18.4449,17.45058 20.12901,12.74806 8.65838,-24.17663 -4.2761,-27.73615 -8.89042,-38.24469 -1.64573,-3.74795 0.72189,-7.53362 7.04505,-2.85151 6.15736,4.55933 14.14444,10.14734 21.97385,16.1029 6.38464,4.85657 10.2061,2.60872 14.25805,-1.34204 C 206.32175,128.34173 201.03423,63.238034 195.04649,5.1676432e-4 Z M 678.09453,166.29166 c 15.71932,5.46436 17.96915,3.64749 22.53609,3.08353 -1.48278,27.64423 -2.82215,56.93676 -3.67678,91.80473 -12.27197,-7.04285 -24.7856,-23.19816 -38.31136,-77.57149 8.94067,-3.64327 19.57808,-5.8157 19.45205,-17.31677 z m 37.9553,2.4908 c 6.32904,1.53561 9.98161,0.98915 13.52166,0.35554 2.33851,12.33526 16.57598,12.33109 26.68726,16.6057 -6.8014,34.43761 -24.28272,41.80419 -36.41328,46.61369 -1.77868,-24.27269 -2.57906,-42.67484 -3.79564,-63.57493 z m -65.473,16.60519 c 1.46834,10.65015 6.14796,23.63587 11.03085,36.76933 -15.83085,-3.42241 -30.53112,-11.74337 -42.58087,-31.55053 9.46069,-0.3315 20.19697,-2.36415 31.55002,-5.2188 z m 113.86591,1.54203 c 3.23041,1.3758 9.29814,1.94098 14.5893,2.72799 -5.63269,7.79465 -14.26955,13.33656 -22.2989,19.33371 2.67656,-7.1405 6.15937,-12.66855 7.7096,-22.0617 z M 527.71042,290.02261 c 1.33824,0.69009 3.67829,0.52169 5.74539,0.58704 -0.20547,6.90952 -0.77123,13.45925 -1.30018,20.04529 -4.00958,-3.36943 -6.55696,-3.57846 -13.75471,-13.83843 5.07423,-1.5064 7.04052,-4.20856 9.3095,-6.7939 z m -6.44146,0.49351 c 1.21794,0.007 2.28062,0.14905 3.46284,0.13797 -1.85533,1.89046 -4.35416,3.20922 -6.90914,4.47777 -0.51652,-0.56141 -1.04037,-0.94819 -1.60146,-2.04587 -0.47107,-0.92157 -0.052,-1.68265 0.65268,-1.89808 1.80394,-0.55146 3.17714,-0.67899 4.39508,-0.67179 z m 24.51581,1.47743 c 9.14364,0.93815 17.38499,1.0742 25.5385,1.13223 -2.78654,10.29257 -6.29731,20.00643 -12.4132,27.63552 -3.90204,-0.3871 -7.84437,-0.96263 -12.0773,-2.89388 -0.19994,-8.47513 -0.31217,-16.86285 -1.048,-25.87387 z m -33.09203,1.65571 c 0.27149,0.89946 1.05334,1.79908 1.8681,2.69854 -2.24185,-0.26983 -4.10517,0.0661 -5.96036,0.41496 1.52856,-0.85502 3.23656,-1.51085 4.09226,-3.1135 z m 2.60501,4.67672 c 4.6628,6.84312 9.98951,12.44199 16.43879,15.93546 -0.42957,6.60568 -0.84595,13.14026 -1.92909,23.23165 -12.34543,-3.88013 -24.44161,-13.12111 -35.89651,-36.14766 4.2846,-0.0926 7.23301,-0.91436 9.05784,-2.34869 4.54414,0.53672 8.6793,0.35783 12.32897,-0.67076 z m 62.39929,3.27111 c 4.96097,7.03003 11.76548,9.14415 18.70325,10.9027 -10.89929,6.39676 -20.32641,8.77807 -28.76775,8.47132 3.62709,-6.11765 7.30533,-12.17147 10.0645,-19.37402 z m -30.42967,19.89595 c 0.75082,0.61367 5.06516,1.71328 9.19272,2.78742 -2.77238,2.59233 -5.45666,5.31714 -8.83667,6.99803 -0.42994,-3.44858 -0.7097,-6.80702 -0.35605,-9.78545 z" /><path
       id="rect3"
       style="font-variation-settings:'wght' 700;display:inline;fill:#225500;fill-opacity:1;stroke:none;stroke-width:4.18815;stroke-linecap:round;stroke-linejoin:round;stroke-dasharray:none;paint-order:markers fill stroke"
       d="M 111.11156,5.1676432e-4 80.180636,243.86263 c -5.335785,-10.85044 -15.245151,-6.55151 -23.913786,-6.36188 -2.814565,-21.28226 -28.720797,-8.96966 -26.851591,-12.14138 2.749691,-4.66575 12.411846,-4.21416 11.386902,-8.06566 -5.757928,-21.63694 -38.8414461,-13.12373 -35.5833581,2.37247 -1.8932888,0.26995 -3.6173935,0.37075 -5.21828613568,0.3483 V 705.64323 H 1058.3328 V 210.96335 c -18.9001,19.11972 -34.6655,47.64331 -44.4526,94.10227 -21.21032,29.08909 -50.27765,52.00486 -48.03218,99.52364 -25.38337,18.80739 -29.55371,45.94851 -30.1935,74.47659 -14.36065,-9.87586 -38.8383,7.63074 -58.0378,12.74857 -16.36861,4.36323 -24.92495,-1.37074 -36.2319,-3.35483 -30.80166,-5.40492 -38.8686,8.25961 -48.97996,19.79311 -17.00514,-19.2456 -57.67392,19.1826 -49.98661,63.74133 -5.5816,1.94581 -21.21602,-30.82269 -50.44447,-26.70277 -22.10227,3.11544 1.9417,21.17313 5.49011,32.0704 -11.70571,-4.99058 -24.39318,-14.39956 -33.88372,-9.72912 -8.34745,4.10791 -2.68726,15.22797 1.67741,25.83201 -25.84678,-13.13456 -50.42572,-12.32347 -72.79917,12.74858 5.60318,-12.73676 10.42112,-22.53006 14.76086,-30.52889 -13.14232,-2.20705 -20.21257,7.98299 -25.83202,21.13514 -0.28923,-12.42196 3.83807,-32.51245 -4.69635,-32.20578 -11.96564,0.42997 -10.12368,18.66008 -11.74192,31.53502 -12.95951,-29.8766 -19.63083,-23.20346 -27.84481,-25.49663 8.34989,15.48066 21.48705,34.07358 18.11569,41.93542 -12.08674,-9.91503 -24.02258,-16.49525 -31.87041,-9.39374 -4.38076,3.96416 4.3406,6.11045 9.32915,8.95346 6.38774,3.64042 6.67024,7.46452 7.59075,10.91251 -12.31562,-3.87275 -21.85222,-5.47219 -30.71957,-6.52363 -19.06921,-17.19733 -35.30079,-42.25371 -70.09908,-15.8936 4.93984,-8.79974 5.93929,-20.27008 26.45006,-19.68976 13.53493,0.38295 23.97845,-3.41851 35.10897,-6.52311 -14.1672,-15.18393 -23.28105,-36.71177 -65.89159,-16.19023 2.84222,-17.66143 -5.23801,-37.1507 -11.07116,-37.90931 -12.34757,-1.60582 -7.71134,22.69258 -7.38042,36.23189 -6.62675,-8.18562 -17.00794,-28.54161 -18.45159,-16.10289 -1.52927,13.17642 4.84384,21.62383 8.97413,30.88649 2.23494,5.01213 1.98282,6.64817 2.13475,9.13277 -3.95309,-4.38038 -8.52301,-10.79199 -12.33568,-19.80757 -11.39792,-26.95193 -20.37544,-26.6506 -29.77079,-25.0269 -13.34437,2.30617 -24.14678,-1.10072 -34.04133,-6.40478 l -20.75688,23.48488 c -13.08801,-29.55339 -54.81238,-35.48387 -62.15176,-44.3606 -7.33938,-8.87673 -3.41213,-7.06561 -1.66036,-9.01444 1.2517,-1.39251 4.19192,-0.70986 6.87916,-0.35554 -3.79945,-11.90218 -13.59332,-18.2093 -21.82399,-25.97567 12.86279,-0.73842 28.11761,-6.9787 44.12289,-14.94483 -13.9708,-16.2823 -28.72514,-25.57417 -49.10449,-23.48487 -6.6131,0.67798 0.95796,-8.03849 15.6564,-12.33568 9.09453,-2.65885 17.39185,-6.28756 23.95926,-12.33516 7.41841,-6.83123 9.2317,-4.26184 13.52166,-5.456 -13.17671,-16.83154 -41.4236,-20.13411 -60.96579,-1.89808 8.76502,-27.99575 16.36122,-55.11756 -9.25163,-57.40734 -0.26586,17.62495 -5.62267,32.473 -9.01444,48.39291 -2.21351,-17.8061 -3.27474,-36.89991 -21.1124,-37.24372 -0.52912,19.04007 -0.7378,37.41679 3.08405,47.44413 2.66864,11.75881 6.33227,24.45793 3.55792,31.07614 -2.40732,-9.29785 -6.87157,-17.00406 -13.04675,-27.28051 -8.20242,-13.65009 -5.61083,-35.58798 -26.09453,-36.05723 6.57818,-34.17695 29.86874,-67.68742 56.67509,-106.79348 24.43272,-35.64334 42.13807,-74.48846 63.40595,-113.05666 29.02792,-10.47677 57.45628,-16.23195 89.90873,-53.676831 5.99202,7.147181 19.81363,12.514791 35.56062,17.444931 4.06785,-9.82977 -0.74339,-20.293933 -2.34818,-30.528887 15.96626,28.980317 44.25145,34.442597 74.81197,35.561137 -6.96588,-28.453616 -29.49178,-51.541932 -75.33752,-66.5887 0.61064,-1.055074 -0.76964,-2.542717 -3.79563,-4.388363 23.58305,0.1773 46.7168,-0.09486 68.08214,-2.13527 C 447.54236,28.684119 432.45856,12.854483 410.28658,5.1676432e-4 Z m 766.8948,0 C 877.79038,1.8225336 877.96126,3.9924659 878.66471,6.6419718 782.82058,8.872609 766.0847,31.340443 744.87236,52.662935 c 31.47971,3.136698 63.44073,6.521782 85.39944,4.744414 -17.75281,10.603917 -23.34176,18.775257 -27.04331,26.568921 19.36797,5.618372 39.17427,-9.809616 58.83052,-18.028874 -16.22496,10.748773 -16.98504,22.356693 -22.77329,33.685282 14.25127,-1.820821 28.23632,-2.442635 45.54658,-18.028873 -3.70981,4.929317 -8.37973,9.165211 -6.64198,18.028873 13.8755,-1.477251 28.82478,-9.756087 44.59728,-23.247676 0.45183,19.409587 -2.62643,42.661878 9.34465,49.420238 8.38168,4.73193 64.87192,-62.880891 79.84995,-50.369018 0.3696,37.029248 31.6351,33.004848 46.3506,36.621018 V 5.1676432e-4 Z M 298.42313,40.327254 c 10.42358,11.383864 21.34141,22.331108 35.82055,30.12736 5.65934,8.822512 11.99662,15.950459 18.26607,23.247677 -37.6424,31.436839 -57.43682,36.101549 -76.14781,39.141279 5.43554,-16.20133 10.75326,-32.57976 18.02888,-46.020963 10.59832,1.195987 21.38916,5.220229 31.55001,0 -10.54938,-14.872558 -20.41728,-30.055086 -27.5177,-46.495353 z m -72.23332,8.658903 c 12.25588,11.84505 24.69669,23.669755 48.39291,34.278011 -13.85961,32.560902 -28.1565,64.715922 -46.37649,93.227902 -5.43548,-2.27431 -7.92908,-7.84489 -9.37049,-14.82649 -4.19562,-20.32191 -7.0839,-40.34815 -7.59075,-60.01649 4.83466,1.36109 7.39729,0.63928 10.4376,0.35554 -4.17192,-8.809386 -7.73094,-17.541823 -15.53807,-26.805602 12.74733,10.723606 25.93277,18.893033 40.56497,18.621602 -4.4123,-14.944888 -13.22788,-29.889585 -20.51968,-44.834473 z M 348.65469,51.5953 c 4.3617,1.21386 8.00948,1.642124 13.81828,4.447791 0.41132,2.234893 2.39667,5.388527 4.68498,8.718331 -3.8911,-5.176013 -17.14237,-8.800641 -18.50326,-13.166122 z M 142.57941,68.4382 c 13.47513,11.700316 27.62472,36.93226 40.42492,29.0189 2.3266,-1.438354 -2.01559,-8.550144 -7.88375,-16.774169 6.15522,5.887746 11.71678,11.821432 23.48383,17.277498 0.41289,21.022101 0.93755,41.753401 6.54172,65.921561 2.99603,12.92048 4.86373,26.04556 4.19355,36.90317 -0.49683,8.04915 -70.39522,87.09602 -93.09561,137.54664 z m -0.60306,339.34363 c 12.45103,6.94136 15.7671,18.16492 18.26607,29.77131 -5.98977,-4.29872 -7.28639,-7.74401 -19.45205,-13.16561 -1.17243,-9.19334 -0.48176,-14.03943 1.18598,-16.6057 z" /><path
       id="rect4"
       style="font-variation-settings:'wght' 700;display:inline;fill:#112b00;fill-opacity:1;stroke:none;stroke-width:4.18815;stroke-linecap:round;stroke-linejoin:round;stroke-dasharray:none;paint-order:markers fill stroke"
       d="M 5.1676432e-4,5.1676432e-4 V 184.12365 C 2.7495824,187.38784 5.6049973,191.36096 8.3028524,194.28375 28.90833,166.05452 16.485989,137.82512 14.470435,109.59589 c 10.539063,7.93661 16.750876,18.96405 24.43365,28.94087 4.055814,-7.49698 9.042349,-13.272 -4.270023,-52.900127 7.600187,2.94543 14.119734,12.91693 20.875728,21.349597 C 66.737497,95.578493 84.022357,60.160736 59.542102,26.568921 48.615834,11.575892 40.510884,4.1014215 33.992757,5.1676432e-4 Z m 92.60209923568,0 C 79.581279,132.83537 70.472446,270.30167 35.345646,361.99858 c -1.12222,-3.87459 -3.508491,-7.74951 -9.963216,-11.6241 -0.174798,-6.99484 0.137651,-13.65631 8.302852,-14.94483 C 26.781455,327.41407 18.673361,321.14996 6.8791667,320.24764 12.241605,315.01715 17.992074,310.09653 27.754895,308.38634 19.630625,299.99439 10.752034,293.7902 5.1676432e-4,293.01726 V 705.64323 H 1058.3328 v -350.9579 c -4.0228,-0.61001 -8.9161,-0.95233 -17.8836,-0.0408 -5.3543,-82.83506 -12.6729,-176.44438 -12.0985,-247.18388 0.1587,-19.552164 16.6082,-44.918656 29.9821,-70.159021 V 18.568892 c -11.4965,9.705714 -22.9928,17.009112 -34.4894,46.904114 -1.2178,-24.885678 -1.475,-45.449348 -1.6123,-65.47248923568 H 994.58477 C 995.56293,47.735152 996.39041,95.419763 995.61416,142.56959 965.54077,95.38329 954.68776,47.769688 950.84325,5.1676432e-4 H 928.82289 C 933.08692,73.523055 959.41161,135.16676 993.9538,192.38567 c -0.24839,59.05672 -0.22295,118.38769 2.60914,180.5249 -14.0114,8.84153 -19.88762,27.11931 -22.77277,48.8673 -5.3389,-72.79898 -20.35523,-127.2621 -59.54262,-135.9271 0.91507,6.58109 2.41504,12.24481 9.72603,24.67084 27.65165,46.99779 28.94897,78.55062 38.66689,114.57751 -11.3032,-26.76687 -19.51102,-56.3482 -58.11894,-67.37057 -28.64663,-8.17847 -44.00784,6.30425 -58.11893,20.63802 18.08297,-3.45644 36.66587,-2.94922 53.84891,11.62358 40.50339,34.35061 49.33926,72.39755 60.72859,109.59589 -19.9554,-25.11429 -48.34891,-99.38178 -115.52628,-65.23529 26.18524,9.92845 53.91276,13.4388 90.14385,72.82656 34.69598,56.87151 26.91256,82.08771 34.87126,117.89875 -12.57269,-25.69888 -15.0972,-64.76717 -29.88965,-76.385 -3.88002,-3.04732 -9.81608,-7.45613 -18.97765,-19.21485 -7.60423,-9.7599 -14.46184,-21.05384 -27.28051,-22.53609 -35.56293,-4.11222 -53.3648,9.39896 -72.82656,20.63801 21.22509,0.72326 46.22443,-4.8126 58.11893,15.41922 9.3412,15.88881 16.59095,25.7842 27.0428,30.83894 16.64342,8.04911 18.51436,23.37652 25.14575,37.00653 10.84508,22.29071 21.1237,41.59925 20.87521,55.74647 C 927.70722,609.3989 874.3988,564.85408 851.6214,572.88751 c 12.73834,20.04077 25.43539,40.17816 37.24372,62.38896 -14.39323,9.84434 -24.26751,20.44157 -31.07613,31.55001 6.42177,-25.48869 12.11658,-50.32928 4.27002,-63.10054 -8.12228,16.49524 -15.12364,36.72634 -21.3496,59.54262 6.89563,-46.75094 0.25729,-79.24307 -10.43761,-107.46114 -1.32043,27.4547 -6.35088,40.07009 -2.60966,87.77138 -9.69689,-40.32639 -22.85286,-78.1106 -48.8673,-106.51184 -5.89625,30.23816 19.2727,65.67575 27.27999,98.4467 -22.31273,-48.12454 -47.76485,-56.33019 -74.48693,-48.39291 31.82347,15.85481 50.3944,38.91676 64.28652,64.52371 -29.18872,-27.84357 -59.69167,-37.28754 -91.09263,-34.15967 23.9916,18.60564 60.80534,29.13958 79.46905,49.57889 -19.13578,-7.47113 -38.27157,-14.391 -57.40735,-11.62358 -16.39421,2.37093 -33.26063,-0.29606 -43.17411,-11.14919 -6.61168,-7.23837 -13.40013,-15.22611 -23.48487,-13.28446 -19.84076,3.82001 -37.29933,15.39913 -43.4113,33.92247 -2.56479,7.77301 -9.07249,10.94895 -28.70368,0.94878 -13.93326,-7.09763 -29.23983,-10.43494 -48.51177,-1.66036 -13.24393,6.03001 -25.34575,5.91153 -35.82003,-1.54203 -13.14475,-9.35388 -23.53124,-21.97163 -44.24175,-23.48487 -7.12383,-0.52051 -13.78989,0.0859 -24.07811,-4.38836 -8.55057,-3.71857 -16.12743,-6.8294 -28.22877,-10.08207 -6.75207,-1.81486 -14.06074,-1.34676 -18.74046,-10.79366 -7.10028,-14.33327 -20.24549,-21.80319 -38.1925,-21.82399 -10.0735,-0.0117 -20.90844,-3.10104 -31.55001,-5.68286 24.32821,-9.25548 42.61005,-21.32307 53.34144,-36.90265 -24.50774,-0.16967 -48.42604,1.58942 -66.0895,23.81921 9.80236,-21.66008 24.13862,-39.88948 48.30919,-54.3481 13.77449,-8.23978 20.01715,-20.16725 23.81922,-31.53503 -8.56796,0.78279 -14.92971,1.83733 -27.84481,2.34818 -32.35377,1.27973 -32.01962,41.9239 -43.94822,62.06391 -1.33753,-23.36742 6.09265,-37.21651 11.40654,-54.68296 5.42803,-17.84164 6.8006,-34.56118 -8.38709,-49.65124 -1.83461,-1.82282 -2.62058,-1.49515 -6.70967,0.67076 -5.22152,2.76574 -9.02007,14.76003 -6.37428,34.55448 3.94876,29.5426 11.60626,32.43743 3.35483,68.10282 2.09511,-36.48907 -6.37247,-60.61197 -30.19299,-66.76078 -2.25686,22.31934 6.56246,44.0557 16.10289,65.75413 -12.2,-22.55242 -32.5135,-17.8125 -51.32813,-18.11569 16.19596,9.74785 27.31639,24.5707 37.9088,39.92211 C 235.40162,557.92052 217.59219,549.67554 205.64946,518.3172 198.86809,500.51118 189.63447,482.02623 155.66285,491.14315 135.89224,458.5022 119.09658,423.09444 121.44375,371.71219 125.68764,278.80863 152.44122,129.45552 154.83603,5.1676432e-4 Z M 44.360083,423.43875 c 43.687172,11.56561 31.856933,76.18858 36.294942,101.76743 3.185508,18.35995 5.315561,35.51472 7.353557,52.90014 7.718099,-66.26614 32.482718,-79.12098 63.812638,-71.4034 -10.54066,26.85153 -27.40678,44.8479 -45.78376,60.72859 -18.205939,16.89085 -23.49043,45.46047 -25.382435,77.09659 7.401131,-13.71149 16.649318,-25.57581 29.415255,-33.92248 9.43161,-18.75637 19.12967,-37.36855 35.34565,-43.4113 18.01995,-6.71499 44.0084,-2.43065 69.50584,10.20041 -22.25229,-0.008 -40.03958,3.97841 -50.29099,14.70763 27.04193,-11.68972 80.06249,-7.7564 91.32982,30.60123 -15.08941,-6.38396 -31.41709,-8.12447 -50.76486,-3.08405 -19.20893,5.00424 -35.76639,0.0932 -51.95135,-4.9816 -35.81245,-11.22904 -69.450248,23.64952 -71.403391,44.1234 12.330035,-13.07661 27.068851,-21.67398 46.969741,-21.35012 17.05962,0.27762 33.73394,0.95121 44.83447,11.3869 13.27323,12.47827 20.19695,23.08917 26.56893,33.44809 -24.03834,-1.77386 -47.52637,-7.46806 -72.11498,-23.48487 -30.359877,-19.77616 -50.952527,12.75058 -53.137327,13.75885 -4.193325,1.9352 3.9909,-38.3427 -22.061703,-61.44018 -20.309001,-18.00537 -27.737319,-27.41055 -38.192501,-42.46252 22.479244,-4.74174 37.82592,5.88135 47.206938,28.70367 7.904355,19.22987 9.13818,28.96831 13.521655,43.17411 C 81.652017,617.79619 88.290246,595.34765 58.118933,551.063 35.532568,536.03216 19.144028,517.68116 14.23324,493.18127 c 31.497066,11.99301 44.6023,30.76283 52.42574,51.47696 5.866206,15.53196 11.003484,30.33067 15.182019,44.83447 C 90.328668,536.80132 64.118563,503.01251 47.681327,464.0032 40.841586,447.77094 42.988845,435.57249 44.360083,423.43875 Z M 1023.6052,608.35977 c 2.3745,11.69587 -14.2175,34.8263 -12.8256,57.86468 1.4847,-10.97039 1.6364,-9.9529 5.1553,-19.78587 7.0046,-19.57309 18.3047,-29.53799 30.8958,-37.17706 -0.2282,15.97468 -18.2039,39.56972 -29.6225,58.82432 10.9864,-14.86279 24.6826,-15.96948 37.6995,-20.52433 -8.1768,10.27694 -40.1619,34.14929 -42.8248,35.36166 -0.9985,0.45457 -2.5226,0.55285 -3.4086,-0.2713 -16.27324,-15.13692 -53.7421,-32.77557 -61.94811,-50.66409 14.60386,1.90218 28.9666,6.45359 43.28056,21.52944 0.29627,0.312 0.59017,0.62819 0.88109,0.94722 -4.8638,-7.504 -9.31811,-15.13399 -11.64374,-22.20949 10.45397,8.64762 22.6829,14.39381 27.9745,31.48025 -2.405,-36.4245 6.2954,-47.61292 16.3866,-55.37543 z m -730.3616,0.18035 c 11.34256,9.39348 21.06919,20.90003 25.14472,41.28533 2.04741,10.24099 2.34575,9.25626 2.21485,20.32589 4.73654,-22.58915 -8.30504,-47.8917 -4.25039,-59.11629 8.85138,9.15106 15.82728,21.4883 8.13646,57.17274 7.72663,-16.13216 20.66248,-20.03323 32.26573,-27.06398 -3.33254,6.66073 -8.8517,13.55968 -14.75776,20.27422 0.33433,-0.2732 0.67116,-0.54328 1.00976,-0.80874 16.35935,-12.8274 31.23227,-15.23595 45.9574,-14.98823 -10.72685,16.50069 -50.36724,28.48686 -68.67384,41.08896 -0.99671,0.68614 -2.49014,0.36691 -3.41168,-0.22841 -2.45765,-1.58772 -30.61987,-29.86904 -37.21065,-41.22849 12.21356,6.40432 25.6017,9.49657 34.30333,25.80256 -8.48878,-20.71388 -22.83164,-46.67836 -20.72793,-62.51556 z" /><path
       style="opacity:1;fill:#112b00;fill-opacity:1;stroke:none;stroke-width:0.2;stroke-linecap:round;stroke-linejoin:round;paint-order:markers fill stroke"
       d="m 353.33985,213.4984 c 7.85547,-5.44092 13.51677,-6.18004 19.21486,-6.998 -11.58426,-15.45713 -23.16853,-22.83135 -34.75279,-31.66893 16.00891,4.83873 33.50565,3.13103 45.07188,27.51757 11.95812,-7.0459 24.08086,-13.30162 39.14137,-5.45607 -13.96889,0.86408 -25.52161,7.96993 -35.70168,18.6218 -7.12334,-2.89081 -15.20823,-3.3354 -24.90814,-0.71166 -4.42609,1.19722 -7.07462,0.51916 -8.0655,-1.30471 z"
       id="path24"
       sodipodi:nodetypes="ccccccsc" /></g><g
     inkscape:groupmode="layer"
     id="layer3"
     inkscape:label="layer 2"
     style="display:inline"
     sodipodi:insensitive="true"><path
       style="display:inline;opacity:1;fill:#d40000;fill-opacity:1;stroke:none;stroke-width:0.0969825;stroke-linecap:round;stroke-linejoin:round;paint-order:markers fill stroke"
       d="m 450.84315,643.0488 c 1.92554,-0.20449 3.87946,-0.47285 6.0191,-1.15908 2.12363,0.22529 3.90874,0.43757 8.01193,0.24401 3.71003,-0.175 5.51868,0.20257 7.56456,0.44737 1.23372,0.14762 1.27189,-0.22357 1.01673,-0.61006 -2.232,-3.38077 -6.03762,-2.96399 -9.61836,-3.02988 15.45778,-8.79557 31.55051,-21.94054 23.3101,-46.90718 3.42909,0.49491 5.63744,-0.63785 7.70708,-1.95553 0.54467,1.64442 0.7974,3.25018 0.3451,4.88882 -0.19831,0.71848 0.35511,0.64681 0.71894,0.46013 4.25185,-2.18168 6.98362,-12.60428 0.0288,-18.23244 0.49303,-5.30849 -3.8405,-6.53846 -8.25349,-7.39075 -13.29834,-2.56834 -20.57072,4.44779 -23.17879,8.02342 -2.16176,2.96375 -3.37972,6.82469 -4.6875,10.29529 -1.21647,3.22825 -4.61126,5.50322 -7.59616,7.27079 -10.71913,6.34759 -16.00564,21.95494 -22.91587,37.73515 -2.48898,5.68386 -5.00385,9.73887 -7.50577,13.8325 3.48356,-0.11993 7.7868,-1.15595 13.11354,-3.3359 -5.27135,13.46472 -10.54295,26.92956 -16.44945,40.60599 6.67917,-1.72838 22.67646,-26.2601 32.36955,-41.18265 z"
       id="path25"
       sodipodi:nodetypes="ccssscccsscssssscccc" /><path
       id="path28"
       style="display:inline;opacity:1;fill:#0000ff;fill-opacity:1;stroke:none;stroke-width:0.0969825;stroke-linecap:round;stroke-linejoin:round;paint-order:markers fill stroke"
       d="m 464.19638,593.17393 c -0.68941,-0.009 -1.40621,0.0109 -2.14978,0.0614 -7.75668,0.52678 -11.89296,3.70119 -15.68038,7.03719 -7.04601,7.75281 -11.53021,20.24934 -17.05084,32.85627 -2.48898,5.68385 -5.00386,9.73895 -7.50579,13.83257 3.48357,-0.11993 7.78665,-1.15585 13.11339,-3.3358 -5.27134,13.46473 -10.54293,26.92947 -16.44943,40.6059 6.67918,-1.72838 22.67654,-26.2602 32.36963,-41.18275 0.0831,-0.009 0.16615,-0.0177 0.24933,-0.0268 2.1957,-4.23368 5.55444,-9.35087 10.72732,-13.9516 5.85743,-5.20957 10.29626,-11.5491 13.15473,-19.09687 3.75261,-9.90872 -0.43699,-16.66004 -10.77818,-16.7995 z" /><path
       id="path30"
       style="display:inline;opacity:1;fill:#008000;fill-opacity:1;stroke:none;stroke-width:0.0969825;stroke-linecap:round;stroke-linejoin:round;paint-order:markers fill stroke"
       d="m 476.17712,602.97833 c -3.24548,14.15729 -24.78296,16.78329 -28.10165,16.52085 0.84327,-2.22649 1.61875,-3.63955 2.40411,-5.17108 -5.01512,4.50479 -11.22509,5.50584 -15.04465,4.55564 -2.02314,4.5558 -3.9945,9.39227 -6.11955,14.24504 -2.48898,5.68385 -5.00386,9.73895 -7.50579,13.83257 3.48357,-0.11993 7.78665,-1.15585 13.11339,-3.3358 -1.1e-4,2.8e-4 -1.4e-4,4.8e-4 -2.5e-4,9.7e-4 l 9.7e-4,-2.5e-4 c 10.70009,-4.5627 18.19989,-7.63438 27.58696,-15.18122 5.51666,-5.08909 9.71907,-11.22313 12.46412,-18.47141 0.81029,-2.13956 1.25041,-4.13177 1.33812,-5.94213 z" /><path
       id="path32"
       style="display:inline;opacity:1;fill:#ffcc00;fill-opacity:1;stroke:none;stroke-width:0.0969825;stroke-linecap:round;stroke-linejoin:round;paint-order:markers fill stroke"
       d="m 464.19638,593.17393 c -0.68941,-0.009 -1.40621,0.0109 -2.14978,0.0614 -7.75668,0.52678 -11.89296,3.70119 -15.68038,7.03719 -4.33379,4.76852 -7.6983,11.33162 -10.93104,18.61123 3.81958,0.95014 10.02934,-0.0509 15.0444,-4.55564 -0.78536,1.53153 -1.56084,2.94459 -2.40411,5.17108 3.31869,0.26244 24.85617,-2.36356 28.10165,-16.52085 l 0.13557,1.05221 c 0.31818,-6.57338 -4.00834,-10.74727 -12.11631,-10.85661 z m 10.77818,16.79949 c -0.73721,1.94661 -1.58825,3.80609 -2.53292,5.59332 0.94468,-1.78722 1.7957,-3.6467 2.53292,-5.59332 z m -3.57485,7.31735 c -0.67405,1.1542 -1.34262,2.31269 -2.10567,3.39769 0.76307,-1.08502 1.4316,-2.24347 2.10567,-3.39769 z" /><path
       id="path34"
       style="display:inline;opacity:1;fill:#000000;fill-opacity:1;stroke:none;stroke-width:0.0969825;stroke-linecap:round;stroke-linejoin:round;paint-order:markers fill stroke"
       d="m 494.86303,577.12217 c -5.35426,0.21722 -9.58943,8.90339 -7.71527,14.91134 l 2.4e-4,5e-4 c 3.42858,0.49458 5.6368,-0.638 7.70626,-1.95557 0.54467,1.64443 0.79735,3.25028 0.34506,4.88892 -0.19832,0.71849 0.3551,0.64677 0.71893,0.46008 4.25182,-2.18167 6.98378,-12.60417 0.0291,-18.23235 -0.36542,-0.0641 -0.72733,-0.0874 -1.08428,-0.0729 z m -31.02474,61.81894 c -2.30511,1.07462 -4.64247,2.25322 -6.97655,2.94839 l -2.5e-4,5e-4 c 2.3e-4,-8e-5 5.2e-4,-1.8e-4 7.5e-4,-2.5e-4 2.12363,0.22529 3.90878,0.43762 8.01197,0.24406 3.71003,-0.175 5.51855,0.20251 7.56443,0.4473 1.23373,0.14762 1.27204,-0.22368 1.01687,-0.61017 -2.23174,-3.38038 -6.03683,-2.96406 -9.61722,-3.02983 z" /><path
       id="path35"
       style="display:inline;opacity:1;fill:#e9ddaf;fill-opacity:1;stroke:none;stroke-width:0.0969825;stroke-linecap:round;stroke-linejoin:round;paint-order:markers fill stroke"
       d="m 483.39348,575.40466 c -1.0947,-0.001 -2.20241,0.29418 -3.24232,0.82593 -0.99736,0.50999 -2.34052,2.20554 -3.72521,3.07894 0.33631,0.50209 0.81124,0.89348 1.36093,1.22486 0.11945,8.05587 4.13745,10.52738 9.35987,11.49912 l 4.9e-4,-0.002 c -3e-5,-8e-5 2e-5,-1.8e-4 0,-2.5e-4 -1.16986,-3.75342 0.0439,-8.55144 2.42517,-11.67679 -1.42481,-3.50981 -3.77058,-4.94738 -6.17894,-4.95006 z" /><ellipse
       style="opacity:1;fill:#000000;fill-opacity:1;stroke:none;stroke-width:0.119531;stroke-linecap:round;stroke-linejoin:round;paint-order:markers fill stroke"
       id="path36"
       cx="483.53635"
       cy="579.34357"
       rx="1.9618554"
       ry="1.8938143" /><path
       style="opacity:1;fill:#000000;fill-opacity:1;stroke:none;stroke-width:0.104853;stroke-linecap:round;stroke-linejoin:round;paint-order:markers fill stroke"
       d="m 673.78113,628.89982 c -0.0768,1.50387 -1.04528,1.68377 -1.96167,2.01073 -1.46503,0.52271 -1.78531,1.63243 -0.6866,1.86362 4.71602,0.99234 6.41024,3.35439 6.81686,6.32643 -3.18781,-4.77659 -19.70768,-6.35941 -18.39082,5.83603 -4.4506,-4.99464 -0.87028,-9.05912 3.1574,-11.2514 -4.30939,1.0234 -6.5576,2.68473 -8.72748,7.77986 -1.15178,-3.89729 0.66979,-6.87494 6.261,-9.66378 -5.30777,1.5493 -6.73297,1.19179 -8.0963,8.08397 -0.6835,-7.17898 0.61827,-9.19271 13.92799,-11.32874 l 0.68659,-2.5502 z"
       id="path51"
       sodipodi:nodetypes="cssccccccccc" /><path
       id="path37"
       style="display:inline;opacity:1;fill:#ffcc00;fill-opacity:1;stroke:none;stroke-width:0.104853;stroke-linecap:round;stroke-linejoin:round;paint-order:markers fill stroke"
       d="m 650.82804,551.23874 c 9.28424,0.27255 18.95539,7.1895 21.01384,11.97856 2.31664,5.38977 4.91093,9.99575 7.83724,14.28736 14.27972,5.49548 26.30349,38.73271 39.60236,58.05109 -4.49077,-0.64055 -9.92477,-2.29983 -20.8762,-9.91793 5.73477,14.62629 13.80661,27.61661 20.73749,41.40563 -4.85019,-0.57673 -8.4197,-4.28401 -12.13733,-7.62918 -8.91913,-6.08344 -17.00784,-17.2324 -24.62143,-31.27961 -2.88234,5.29149 -10.51518,0.25171 -16.22934,-1.45649 -10.05444,-3.00568 -17.72798,-11.26721 -23.44237,-23.65044 -6.22913,-13.49868 -1.93127,-19.64996 1.59519,-26.00856 -2.65528,0.0445 -5.33014,-0.30286 -8.11466,-2.84359 -0.7757,1.97555 -0.82374,4.14515 -0.62421,6.38076 -3.99828,-2.52035 -8.01843,-13.57788 0.69355,-20.73749 3.56414,-6.51515 8.99534,-8.74365 14.56587,-8.58011 z m -8.82637,18.81042 c -2.00751,0.37551 -3.53045,1.57369 -4.87959,2.82003 1.49992,-0.2434 3.11816,-1.13836 4.87959,-2.82003 z" /><path
       id="path39"
       style="display:inline;opacity:1;fill:#aa0000;fill-opacity:1;stroke:none;stroke-width:0.104853;stroke-linecap:round;stroke-linejoin:round;paint-order:markers fill stroke"
       d="m 670.51527,575.81606 c 2.91336,-0.0516 6.18716,0.5659 9.16332,1.68779 1.6e-4,2.6e-4 3.6e-4,5.2e-4 5.1e-4,10e-4 14.27972,5.49546 26.3035,38.7327 39.60236,58.05109 -4.49076,-0.64057 -9.92476,-2.29983 -20.8762,-9.91793 5.73478,14.62628 13.80661,27.61661 20.7375,41.40561 -4.8502,-0.57673 -8.4197,-4.284 -12.13734,-7.62918 -8.91912,-6.08344 -17.00783,-17.2324 -24.62143,-31.27961 -2.88233,5.29151 -10.51517,0.25171 -16.22933,-1.45649 -10.04649,-3.0033 -17.71586,-11.25426 -23.42884,-23.62118 3.93999,1.32162 11.40356,-0.66204 16.44066,-17.95186 2.08986,-7.17339 7.1071,-9.23784 11.34879,-9.2893 z"
       sodipodi:nodetypes="ccccccccscsc" /><path
       id="path41"
       style="display:inline;opacity:1;fill:#008000;fill-opacity:1;stroke:none;stroke-width:0.104853;stroke-linecap:round;stroke-linejoin:round;paint-order:markers fill stroke"
       d="m 670.95081,575.68542 c 2.67647,-0.0518 5.64519,0.5389 8.72778,1.81924 v -10e-4 c 1.6e-4,2.6e-4 3.5e-4,5.2e-4 5.1e-4,10e-4 14.27972,5.49548 26.3035,38.73271 39.60236,58.05109 -4.49029,-0.64049 -9.92352,-2.29941 -20.87267,-9.91549 l -2.8e-4,-2.7e-4 c -7.31522,-5.39315 -13.43469,-11.7252 -20.0125,-19.6993 -0.34019,2.27952 2.07046,6.91693 4.23073,11.33972 -10.0784,-2.1922 -26.21817,-17.26532 -23.19963,-32.42399 1.16153,-5.83308 5.63547,-9.05701 11.52368,-9.171 z" /><path
       id="path43"
       style="display:inline;opacity:1;fill:#000080;fill-opacity:1;stroke:none;stroke-width:0.104853;stroke-linecap:round;stroke-linejoin:round;paint-order:markers fill stroke"
       d="m 670.95081,575.68542 c 2.67647,-0.0518 5.64519,0.5389 8.72778,1.81924 v -10e-4 c 7e-5,1.3e-4 1.6e-4,5.2e-4 2.6e-4,10e-4 l 2.7e-4,2.7e-4 c 6.49831,2.50084 12.52954,10.74663 18.42624,20.81145 -7.06341,1.2357 -13.68526,-1.37473 -20.4988,-8.01253 0.48451,1.74088 1.11119,3.4004 0.98075,5.49268 -4.27259,1.63483 -12.05034,-2.98058 -18.59125,-12.95524 1.7042,-4.55722 5.78413,-7.05551 10.95475,-7.1556 z m 18.47827,31.37878 c 9.0322,10.01143 17.8149,20.97099 27.80965,25.40549 0.67784,1.06175 1.35863,2.09229 2.04275,3.08606 -4.4903,-0.64049 -9.92353,-2.29941 -20.87268,-9.91549 l -2.7e-4,-2.7e-4 c -3.04531,-2.24515 -5.8833,-4.65295 -8.63349,-7.27426 2.73667,2.62597 6.79821,3.61109 10.27583,4.66339 -4.27587,-4.78756 -7.96719,-10.02884 -10.62179,-15.96492 z"
       sodipodi:nodetypes="cccscccccscccsscccc" /><path
       id="path44"
       style="display:inline;opacity:1;fill:#0000ff;fill-opacity:1;stroke:none;stroke-width:0.104853;stroke-linecap:round;stroke-linejoin:round;paint-order:markers fill stroke"
       d="m 689.42908,607.0642 c 9.0322,10.01143 17.8149,20.97099 27.80965,25.40549 0.67784,1.06175 1.35863,2.09229 2.04275,3.08606 -4.4903,-0.64049 -9.92353,-2.29941 -20.87268,-9.91549 l -2.7e-4,-2.7e-4 c -3.02479,-2.23002 -5.8451,-4.62062 -8.57794,-7.22144 2.73587,2.58634 6.76612,3.56538 10.22028,4.61057 -4.27587,-4.78756 -7.96719,-10.02884 -10.62179,-15.96492 z" /><path
       id="path46"
       style="display:inline;opacity:1;fill:#000080;fill-opacity:1;stroke:none;stroke-width:0.104853;stroke-linecap:round;stroke-linejoin:round;paint-order:markers fill stroke"
       d="m 682.86951,626.53946 c 5.08332,2.30227 14.54309,8.4673 19.32516,7.90363 5.20513,11.17767 11.43731,21.63663 16.9481,32.60036 -4.85019,-0.57673 -8.4197,-4.28401 -12.13733,-7.62918 -8.91905,-6.08339 -17.00763,-17.23231 -24.62116,-31.27934 0.14826,-0.58804 0.30822,-1.12933 0.48523,-1.59547 z" /><path
       id="path48"
       style="display:inline;opacity:1;fill:#000000;fill-opacity:1;stroke:none;stroke-width:0.104853;stroke-linecap:round;stroke-linejoin:round;paint-order:markers fill stroke"
       d="m 638.58452,559.12177 c 2.19584,-0.0104 4.09609,2.2109 6.41653,8.2569 1.23861,3.22723 2.0557,7.82967 -0.69356,9.6405 -2.65524,0.0445 -5.33019,-0.30289 -8.11466,-2.84359 -0.7757,1.97555 -0.82374,4.14515 -0.62421,6.38076 -3.99828,-2.52035 -8.01843,-13.57788 0.69355,-20.73749 5.1e-4,-10e-4 10e-4,-10e-4 10e-4,-0.003 0.82416,-0.43985 1.58879,-0.69111 2.32073,-0.69438 z m 3.41715,10.92739 c -2.00751,0.37551 -3.53045,1.57369 -4.87959,2.82003 1.49992,-0.2434 3.11816,-1.13836 4.87959,-2.82003 z" /><path
       id="path49"
       style="display:inline;opacity:1;fill:#ffeeaa;fill-opacity:1;stroke:none;stroke-width:0.104853;stroke-linecap:round;stroke-linejoin:round;paint-order:markers fill stroke"
       d="m 651.36718,558.45096 c 3.01302,0.17118 5.72474,1.82355 6.67283,4.62763 3.54658,10.48957 -7.14634,14.23769 -13.73171,13.94004 2.74829,-1.81119 1.93123,-6.41304 0.69275,-9.63996 -0.7399,-1.92782 -1.43716,-3.46658 -2.11482,-4.66827 2.15355,-3.12046 5.46794,-4.43062 8.48095,-4.25944 z" /><ellipse
       style="display:inline;opacity:1;fill:#000000;fill-opacity:1;stroke:none;stroke-width:0.20842;stroke-linecap:round;stroke-linejoin:round;paint-order:markers fill stroke"
       id="path50"
       cx="-650.51324"
       cy="564.74194"
       rx="2.5504353"
       ry="2.6193659"
       transform="scale(-1,1)" /></g></svg>
