<?xml version="1.0" encoding="UTF-8"?>
<svg id="Layer_1" data-name="Layer 1" xmlns="http://www.w3.org/2000/svg" viewBox="0 0 120 120">
  <!-- Cleaned for Flutter: styles inlined, metadata removed -->
  <rect fill="#eae4d8" width="120" height="120"/>
  <g>
    <path fill="#e75f34" d="M75.65,34.01c-.43,8.92.57,18.37.01,27.23-.52,8.22-5.14,11.94-7.41,19.1-1.68,5.31-3.66,19.18-.76,23.92.83,1.35,2.89,2.36,3.06,4.38-1.02-.24-6.68.29-7.11-.02-.22-.16-.81-4.44-1.15-5.27s-.99-1.23-1.26-2c-1.21-3.44-2.13-17.48-2.31-21.75-.38-9.05.38-18.18-.08-27.24l-25.1-.2c-.84.13-1.7.19-2.54.21-1.71.04-4.13-.23-5.71,0-.02-.46.3-.53.58-.74,11.84-8.92,28.57.1,40.9-8.85l8.88-8.76Z"/>
    <path fill="#211e2a" d="M25.29,52.36c1.58-.23,4,.04,5.71,0,2.58,1.15,4.81,2.55,6.25,5.07,5.15,9.04-2.28,17.99-8.69,23.78-.92.84-6.34,4.78-6.52,5.16-.29.64-.61,6.01-.63,7.07-.03,1.87.14,7.6.94,9.07.61,1.11,3.5,2.51,3.35,4.71h-5.81c-.63,0-2.7-6.58-2.89-7.5-.63-3.01-1.85-14.34-1.03-16.81.18-.56,2.11-2.91,2.64-3.89,1.71-3.19,2.79-6.89,2.61-10.53-.37,1.76-3.32,6.58-5.2,6.72-.52.04-.3-.56-.29-.91.13-3.93,2.32-11.32,4.04-14.92.8-1.68,3.75-6.74,5.54-7Z"/>
    <path fill="#211e2a" d="M75.65,34.01c-.8-.81-2.65-4.13-2.65-5.2v-3.16l8.56,4.6c.39,0,1.91-.21,1.63-.72-.2-.36-3.92-2.93-4.55-3.3-5.04-2.97-13.92-4.68-15.84-10.87-.21-.67-.69-3.37-.61-3.88.16-1.01,1.29,2.29,1.4,2.48,3.92,7.27,13.12,7.66,19.58,12.22.71.5,3.28,2.95,3.49,3.03.95.38,3.17.36,4.52.78,3.14.97,6.72,3.93,7.18,7.3.84.97,5.64,4.76,5.94,5.5.39.96-2.98,4.84-4.01,5.16-1.27.39-10.81.3-12.45.08-4.61-.62-6.98-4.98-6.88-9.33.05-.34.28-2.13.19-2.23-.16-.18-3.58-1.06-4.48-1.64-.05-.04-.97-.77-1.02-.82Z"/>
    <path fill="#3f6076" d="M57.71,53.38l-.2,24.88c-3.67.04-7.32-.79-10.76-1.98-1.14-.4-8.6-3.56-8.93-4.13-.14-.24,1.66-4.27,1.86-5.3.99-5.19-.52-10.1-4.59-13.46h22.63Z"/>
    <path fill="#211e2a" d="M84.22,108.02h-7.54c-.26,0-1.09-4.56-1.32-5.1-.34-.77-1.19-1.27-1.48-2.19-1.22-3.95-2.26-14.99-2.68-19.55-.08-.91-.41-3.12-.23-3.85.1-.41,2.7-1.89,3.33-2.38,2.96-2.29,5.76-4.95,7.78-8.12-.73,5.75-1.98,11.45-2.55,17.23-.49,4.95-1.59,15.53,1.43,19.57,1.02,1.37,3.15,2.27,3.26,4.38Z"/>
    <path fill="#211e2a" d="M47.11,102.52h-5.71c-1.58-3.13-3.35-6.14-4.86-9.31-.64-1.33-3.6-7.43-3.66-8.38-.02-.37,1.95-4.84,2.26-5.81.36-1.13.9-5.71,2.09-5.88.53-.07,8.33,4.14,9.67,4.42.35,1.05-5.59,8.46-6.5,9.75l2.89,10.98c1.22,1.45,3.03,2.42,3.83,4.23Z"/>
    <path fill="#211e2a" d="M90.74,28.91c-.13.12-3.25-.5-3.41-.56-.4-.15-3.52-2.98-4.39-3.56-5.21-3.5-13.07-5.37-12.17-13.41.8,1.22,1.16,2.61,1.95,3.86,2.74,4.32,8.38,5.55,12.5,8.3.53.35,6.15,4.81,5.52,5.38Z"/>
    <path fill="#211e2a" d="M80.95,44c1.15,1.97,2.62,3.62,4.78,4.49.48.19,2.47.51,2.55.61.11.12-1.5,2.52-1.63,2.85-2.82-1.99-4.86-4.57-5.71-7.95Z"/>
    <path fill="#3f6076" d="M76.67,34.82c.9.58,4.32,1.46,4.48,1.64.09.1.39.59-.19,2.23s-.86,3.17-.2,4.89,3.09,6.37,5.91,8.36c-.85,2.23-1.21,5.28-2.03,7.65-2.24,6.45-7.06,12.44-13.05,15.69,2.83-3.85,4.96-10.44,5.08-13.06s.01-27.41.01-27.41Z"/>
  </g>
</svg>